<svg width="747" height="219" viewBox="0 0 747 219" fill="none" xmlns="http://www.w3.org/2000/svg">
<path d="M100.567 218.405C42.5384 218.405 0.116427 176.551 0.116427 109.442C0.116427 41.9068 42.3966 0.194213 100.567 0.194213C150.083 0.194213 186.972 30.8402 193.64 78.0861H149.516C144.55 53.1153 126.247 38.7855 101.135 38.7855C65.2392 38.7855 44.0991 66.1682 44.0991 109.442C44.0991 152.431 65.0973 179.814 101.135 179.814C126.106 179.814 144.266 165.626 149.658 140.797H193.64C186.972 187.901 150.083 218.405 100.567 218.405ZM206.421 215V3.59932H250.12V88.4434H339.93V3.59932H383.487V215H339.93V125.9H250.12V215H206.421ZM389.173 215L463.376 3.59932H519.561L593.764 215H545.383L530.627 168.889H451.6L436.277 215H389.173ZM463.376 133.987H519.277L512.183 112.137C505.656 90.5715 499.13 69.0058 491.61 42.7581C483.949 69.0058 477.422 90.5715 470.612 112.137L463.376 133.987ZM599.45 215V3.59932H746.437V41.0556H643.149V92.9835H739.343V129.305H643.149V215H599.45Z" fill="black"/>
</svg>
