<svg width="63" height="19" viewBox="0 0 63 19" fill="none" xmlns="http://www.w3.org/2000/svg">
<path d="M9.03516 18.2812C4.24219 18.2812 0.738281 14.8242 0.738281 9.28125C0.738281 3.70312 4.23047 0.257812 9.03516 0.257812C13.125 0.257812 16.1719 2.78906 16.7227 6.69141H13.0781C12.668 4.62891 11.1562 3.44531 9.08203 3.44531C6.11719 3.44531 4.37109 5.70703 4.37109 9.28125C4.37109 12.832 6.10547 15.0938 9.08203 15.0938C11.1445 15.0938 12.6445 13.9219 13.0898 11.8711H16.7227C16.1719 15.7617 13.125 18.2812 9.03516 18.2812ZM17.7783 18V0.539062H21.3877V7.54688H28.8056V0.539062H32.4033V18H28.8056V10.6406H21.3877V18H17.7783ZM32.873 18L39.0019 0.539062H43.6425L49.7714 18H45.7753L44.5566 14.1914H38.0292L36.7636 18H32.873ZM39.0019 11.3086H43.6191L43.0331 9.50391C42.4941 7.72266 41.955 5.94141 41.3339 3.77344C40.7011 5.94141 40.162 7.72266 39.5995 9.50391L39.0019 11.3086ZM50.2411 18V0.539062H62.3817V3.63281H53.8505V7.92188H61.7958V10.9219H53.8505V18H50.2411Z" fill="black"/>
</svg>
